<svg xmlns="http://www.w3.org/2000/svg" viewBox="0 0 60 40" width="100%" height="100%" role="img" aria-label="United Kingdom flag">
  <rect width="60" height="40" fill="#012169"/>
  <line x1="0" y1="0" x2="60" y2="40" stroke="#FFFFFF" stroke-width="8"/>
  <line x1="60" y1="0" x2="0" y2="40" stroke="#FFFFFF" stroke-width="8"/>
  <polygon points="0,0 0,4 26,17 34,17 0,0" fill="#012169"/>
  <polygon points="60,0 60,4 34,17 26,17 60,0" fill="#012169"/>
  <polygon points="0,40 0,36 26,23 34,23 0,40" fill="#012169"/>
  <polygon points="60,40 60,36 34,23 26,23 60,40" fill="#012169"/>
  <polygon points="0,0 12,0 34,13.5 34,17 26,17 0,4" fill="#C8102E"/>
  <polygon points="60,0 48,0 26,13.5 26,17 34,17 60,4" fill="#C8102E"/>
  <polygon points="0,40 12,40 34,26.5 34,23 26,23 0,36" fill="#C8102E"/>
  <polygon points="60,40 48,40 26,26.5 26,23 34,23 60,36" fill="#C8102E"/>
  <rect x="24" y="0" width="12" height="40" fill="#FFFFFF"/>
  <rect x="0" y="15" width="60" height="10" fill="#FFFFFF"/>
  <rect x="26" y="0" width="8" height="40" fill="#C8102E"/>
  <rect x="0" y="17" width="60" height="6" fill="#C8102E"/>
</svg>
